<?xml version="1.0" standalone="no"?>
<!DOCTYPE svg PUBLIC "-//W3C//DTD SVG 20010904//EN"
 "http://www.w3.org/TR/2001/REC-SVG-20010904/DTD/svg10.dtd">
<svg version="1.0" xmlns="http://www.w3.org/2000/svg"
 width="700.000000pt" height="495.000000pt" viewBox="0 0 700.000000 495.000000"
 preserveAspectRatio="xMidYMid meet">

<g transform="translate(0.000000,495.000000) scale(0.100000,-0.100000)"
fill="#000000" stroke="none">
<path d="M0 2475 l0 -2475 3500 0 3500 0 0 2475 0 2475 -3500 0 -3500 0 0
-2475z m3286 1340 c16 -8 37 -15 46 -15 9 0 19 -4 22 -9 3 -5 79 -9 168 -9
155 0 237 12 273 38 20 15 194 -11 223 -33 17 -13 15 -37 -4 -37 -9 0 -18 9
-21 20 -6 23 -19 26 -27 8 -3 -10 -9 -8 -19 5 -17 21 -27 22 -27 2 0 -8 -5
-15 -11 -15 -6 0 -9 9 -6 20 6 22 3 23 -31 14 -15 -4 -21 -12 -17 -21 4 -12 0
-14 -21 -9 -22 6 -25 4 -20 -9 4 -11 2 -14 -6 -9 -8 5 -9 2 -5 -10 5 -13 3
-17 -7 -13 -10 4 -13 1 -9 -9 3 -7 0 -14 -7 -14 -6 0 -14 9 -17 21 -3 12 -11
18 -19 15 -8 -3 -14 -1 -14 4 0 6 -4 10 -10 10 -5 0 -10 -14 -10 -32 0 -24
-10 -40 -41 -69 -23 -21 -46 -36 -52 -32 -6 3 -7 1 -3 -5 4 -6 4 -23 0 -37 -5
-20 -11 -24 -28 -20 -14 4 -10 -1 12 -16 18 -12 31 -24 28 -26 -8 -8 -74 17
-78 29 -3 7 -13 5 -30 -6 -28 -18 -92 -30 -83 -15 4 5 12 9 19 9 7 0 21 7 32
16 15 12 15 14 2 10 -18 -5 -34 36 -22 56 4 6 -1 8 -15 3 -15 -4 -21 -2 -21 8
0 8 -16 25 -36 36 -33 20 -36 24 -30 56 8 42 3 43 -35 10 -41 -34 -67 -20 -60
33 2 9 -6 11 -23 6 -20 -5 -26 -2 -26 11 0 12 -6 16 -20 12 -11 -3 -20 -1 -20
4 0 5 -5 9 -10 9 -6 0 -3 -11 5 -24 16 -23 15 -24 -4 -19 -12 3 -19 9 -16 13
3 5 1 11 -5 15 -6 3 -13 -1 -16 -9 -6 -16 -34 -23 -34 -8 1 20 21 32 70 41 79
13 85 13 116 -4z m-196 -34 c0 -17 -18 -31 -41 -31 -16 0 -10 29 9 39 25 15
32 13 32 -8z m1000 -41 c0 -10 -26 -20 -34 -13 -14 14 -5 31 14 26 11 -3 20
-9 20 -13z m-1070 -6 c0 -17 -22 -14 -28 4 -2 7 3 12 12 12 9 0 16 -7 16 -16z
m-30 -34 c0 -5 -4 -10 -10 -10 -5 0 -10 5 -10 10 0 6 5 10 10 10 6 0 10 -4 10
-10z m1115 0 c-3 -5 -10 -10 -16 -10 -5 0 -9 5 -9 10 0 6 7 10 16 10 8 0 12
-4 9 -10z m-305 -10 c0 -5 -2 -10 -4 -10 -3 0 -8 5 -11 10 -3 6 -1 10 4 10 6
0 11 -4 11 -10z m-815 -41 c15 -14 -7 -10 -35 7 l-25 15 25 -7 c14 -3 29 -10
35 -15z m935 11 c0 -5 -2 -10 -4 -10 -3 0 -8 5 -11 10 -3 6 -1 10 4 10 6 0 11
-4 11 -10z m194 -14 c-10 -8 -23 -12 -28 -9 -5 3 2 12 15 19 30 16 39 9 13
-10z m-1009 4 c3 -5 1 -10 -4 -10 -6 0 -11 5 -11 10 0 6 2 10 4 10 3 0 8 -4
11 -10z m305 -27 c0 -5 -5 -15 -10 -23 -7 -11 -12 -12 -21 -3 -6 6 -8 16 -5
22 8 12 36 15 36 4z m290 -13 c0 -11 -7 -20 -15 -20 -8 0 -15 9 -15 20 0 11 7
20 15 20 8 0 15 -9 15 -20z m356 4 c-5 -13 -1 -15 24 -12 17 3 33 1 36 -4 3
-4 -7 -8 -23 -8 -15 0 -41 -7 -57 -15 -16 -9 -35 -14 -42 -11 -7 3 -14 -4 -17
-16 -4 -15 -11 -18 -27 -13 -14 4 -28 1 -40 -10 -19 -17 -66 -12 -54 6 3 5 9
7 14 4 4 -3 21 2 36 10 16 8 35 15 42 15 6 0 12 5 12 10 0 6 12 10 28 10 32 0
46 9 55 33 3 9 9 17 13 17 3 0 3 -7 0 -16z m124 -10 c0 -8 -9 -14 -20 -14 -23
0 -25 6 -7 24 14 16 27 11 27 -10z m-1255 6 c11 -17 -5 -32 -21 -19 -7 6 -11
15 -8 20 7 12 21 11 29 -1z m102 -4 c-6 -15 20 -26 60 -26 12 0 23 -5 25 -11
2 -7 18 -12 35 -13 17 0 31 -5 30 -11 -1 -5 6 -10 15 -10 10 0 22 -5 28 -11
15 -15 -33 -12 -52 3 -8 7 -26 10 -40 8 -20 -4 -27 0 -31 16 -3 12 -10 18 -16
14 -6 -3 -17 -3 -23 2 -15 9 -31 13 -73 17 -16 2 -28 7 -25 12 3 5 17 8 33 6
15 -2 27 2 27 7 0 6 3 11 6 11 3 0 4 -6 1 -14z m153 -6 c14 -11 18 -18 9 -14
-10 3 -20 1 -24 -5 -11 -19 -25 -12 -25 14 0 30 7 31 40 5z m566 -6 c-23 -17
-36 -18 -36 -4 0 12 42 31 50 23 3 -3 -4 -11 -14 -19z m187 7 c6 -25 -2 -34
-19 -20 -8 6 -22 8 -31 5 -11 -4 -8 1 7 14 31 25 36 25 43 1z m-575 -10 c3 -8
-1 -12 -9 -9 -7 2 -15 10 -17 17 -3 8 1 12 9 9 7 -2 15 -10 17 -17z m102 -12
c0 -14 -17 -10 -23 5 -4 10 -1 13 9 9 7 -3 14 -9 14 -14z m197 -6 c3 -7 -3 -9
-16 -6 -12 3 -21 10 -21 15 0 13 32 6 37 -9z m-267 -15 c0 -16 -3 -19 -11 -11
-6 6 -8 16 -5 22 11 17 16 13 16 -11z m306 -5 c-10 -10 -19 5 -10 18 6 11 8
11 12 0 2 -7 1 -15 -2 -18z m-777 8 c7 -5 10 -14 6 -20 -5 -9 -10 -9 -21 0
-26 22 -14 38 15 20z m1256 -11 c-10 -11 -22 -17 -26 -14 -15 9 -10 22 9 27
33 9 35 7 17 -13z m-1179 -1 c3 -6 17 -9 30 -6 28 5 115 -65 96 -77 -7 -4 -15
0 -18 8 -3 9 -14 16 -23 16 -9 0 -25 10 -36 22 -10 13 -20 17 -22 11 -5 -13
-50 6 -58 25 -5 15 21 16 31 1z m1114 7 c0 -15 -13 -35 -20 -31 -5 3 -11 1
-14 -4 -3 -5 -14 -7 -24 -4 -10 2 -24 -3 -31 -11 -8 -9 -22 -16 -31 -16 -10 0
-20 -6 -23 -12 -2 -7 -8 -9 -13 -5 -14 13 56 67 87 67 15 0 31 5 34 10 6 10
35 14 35 6z m-1156 -49 c-9 -30 -11 -32 -29 -17 -11 9 -18 10 -28 1 -16 -13
-27 -5 -27 21 0 15 3 17 19 8 21 -11 51 -4 51 12 0 5 5 6 10 3 6 -4 8 -16 4
-28z m1226 10 c28 10 31 10 28 -5 -2 -11 -13 -17 -28 -16 -14 1 -28 -3 -31 -9
-11 -16 -29 3 -29 31 0 25 1 25 14 6 13 -17 18 -18 46 -7z m-625 -7 c4 -6 -5
-10 -20 -10 -15 0 -24 4 -20 10 3 6 12 10 20 10 8 0 17 -4 20 -10z m-653 -44
c30 -5 40 -3 57 16 12 12 21 16 21 10 0 -7 13 -12 29 -12 17 0 33 -4 36 -10 3
-5 15 -10 26 -10 10 0 19 -5 19 -11 0 -5 8 -9 18 -7 9 1 29 -9 43 -22 15 -14
48 -31 74 -39 46 -14 62 -25 95 -67 14 -19 23 -54 13 -54 -10 0 -32 28 -26 34
4 3 -6 6 -22 6 -22 0 -25 3 -16 14 15 18 3 26 -32 19 -31 -6 -35 -20 -9 -31
25 -10 102 -66 102 -74 0 -4 -7 -5 -15 -2 -8 4 -15 1 -15 -7 0 -7 -3 -9 -7 -5
-5 4 -8 13 -8 19 0 7 -6 12 -12 11 -7 -1 -20 -2 -29 -2 -9 -1 -14 -8 -11 -14
2 -7 10 -12 17 -10 7 1 18 -5 25 -15 11 -15 15 -15 30 -3 14 12 18 12 26 -1 5
-8 9 -22 9 -31 0 -25 19 -32 39 -14 20 18 57 20 118 6 31 -7 58 -6 102 4 54
13 61 12 87 -5 15 -10 32 -15 36 -13 5 3 16 0 24 -7 21 -17 1 -29 -50 -29 -21
0 -65 -7 -99 -16 -54 -14 -66 -14 -126 0 -36 9 -84 17 -106 18 -31 2 -40 7
-39 21 1 9 -4 17 -11 17 -7 0 -15 6 -18 13 -3 9 -7 9 -19 0 -8 -7 -18 -10 -21
-6 -4 3 -7 -1 -7 -10 0 -19 15 -23 25 -7 10 15 25 12 25 -6 0 -9 10 -24 23
-34 19 -16 20 -22 10 -39 -21 -34 -15 -34 16 0 29 31 31 32 88 24 64 -9 116
-9 211 -1 57 5 63 3 78 -19 12 -18 13 -28 5 -44 -12 -21 -4 -54 10 -45 5 3 7
9 4 14 -3 4 1 10 8 13 9 3 12 -10 11 -52 0 -31 -4 -64 -9 -73 -4 -11 -3 -18 4
-18 6 0 11 3 11 8 0 4 11 15 25 24 23 17 24 17 22 -1 0 -11 -6 -17 -12 -14 -5
3 -4 0 2 -7 10 -11 16 -10 33 5 18 16 20 16 20 2 0 -10 -4 -17 -9 -17 -5 0
-11 -13 -14 -29 -4 -17 -14 -34 -24 -39 -15 -8 -18 -6 -19 14 -1 17 3 24 17
24 37 0 18 15 -21 16 -22 1 -40 0 -40 -1 0 -2 7 -16 15 -31 14 -28 14 -29 -11
-32 -30 -4 -49 -44 -34 -72 8 -15 5 -22 -12 -34 -22 -16 -22 -16 14 -16 20 0
49 5 64 11 26 9 27 9 12 -8 -8 -10 -13 -24 -11 -31 3 -7 0 -19 -7 -27 -9 -11
-5 -14 26 -17 47 -4 53 -20 19 -50 l-27 -23 24 -6 23 -7 -23 -1 c-14 -1 -26
-10 -32 -25 -9 -25 -56 -41 -64 -22 -3 7 -9 4 -16 -6 -13 -21 -36 -24 -43 -5
-4 8 -8 8 -14 2 -11 -14 -33 -17 -33 -6 0 6 5 13 10 16 6 3 10 11 10 16 0 6
-5 7 -12 3 -8 -5 -9 2 -5 23 5 26 2 32 -16 38 -21 7 -20 8 8 15 l30 8 -29 1
c-20 1 -27 5 -23 16 4 8 2 17 -3 20 -6 4 -10 15 -10 26 0 13 7 19 23 19 18 0
19 2 7 10 -10 6 -11 10 -2 10 6 0 12 7 12 16 0 14 -1 14 -16 0 -8 -9 -19 -16
-24 -16 -4 0 -11 -12 -14 -26 -6 -23 -11 -26 -38 -20 -17 3 -29 3 -25 0 4 -4
-2 -13 -13 -21 -20 -14 -28 -43 -12 -43 5 0 7 -18 5 -40 -2 -22 1 -40 6 -40
11 0 24 48 16 60 -4 6 8 10 27 9 30 0 31 -1 11 -9 -27 -11 -30 -30 -5 -31 12
0 10 -3 -8 -11 -23 -9 -24 -11 -5 -17 17 -7 17 -9 3 -17 -9 -5 -21 -20 -27
-34 -8 -21 -10 -22 -11 -5 0 19 -2 18 -19 -4 -15 -20 -23 -23 -47 -16 -35 10
-102 7 -126 -6 -14 -7 -18 -6 -18 6 0 21 -10 19 -44 -10 -16 -14 -35 -25 -43
-25 -7 0 -13 -4 -13 -10 0 -5 5 -10 10 -10 17 0 11 -18 -7 -23 -17 -4 -17 -4
1 -12 10 -4 21 -4 25 1 3 5 21 17 39 27 28 16 35 15 34 -3 0 -3 9 -6 21 -7 43
-4 87 -15 87 -23 0 -4 -28 -20 -62 -35 -35 -14 -76 -37 -93 -51 -25 -20 -28
-26 -15 -34 8 -5 11 -10 5 -10 -15 -1 -59 -40 -52 -46 3 -3 28 12 56 34 49 39
51 40 93 29 25 -6 35 -13 26 -15 -28 -6 -21 -22 10 -23 25 0 25 -2 -13 -19
-35 -16 -37 -19 -15 -19 l25 -1 -24 -19 c-18 -14 -21 -20 -10 -24 10 -4 9 -6
-3 -6 -19 -1 -26 -21 -8 -21 6 0 10 -8 8 -17 -4 -23 10 -20 89 18 34 16 73 44
87 62 14 17 33 40 42 49 14 14 30 51 50 109 3 9 16 21 29 27 20 9 25 8 30 -8
4 -11 12 -20 19 -20 8 0 13 -18 15 -53 1 -43 -2 -57 -19 -72 -11 -10 -17 -21
-13 -24 5 -3 7 -48 5 -99 -3 -85 -5 -94 -25 -102 -12 -5 -16 -9 -8 -9 18 -1
-34 -58 -60 -66 -10 -4 -29 1 -42 10 -22 14 -25 14 -37 0 -11 -13 -9 -20 11
-41 19 -20 30 -24 55 -19 22 4 37 1 48 -10 20 -20 13 -53 -22 -113 -22 -39
-23 -44 -8 -55 15 -11 13 -14 -14 -31 -17 -10 -38 -15 -46 -12 -7 3 -14 1 -14
-5 0 -15 -63 -6 -68 10 -3 8 0 11 7 7 6 -4 11 -3 11 3 0 5 -6 11 -12 14 -18 5
-48 -4 -48 -15 0 -5 -4 -7 -9 -4 -15 9 17 125 50 186 30 52 65 187 53 199 -3
3 -19 -9 -35 -27 -16 -17 -31 -32 -34 -32 -9 0 -136 -110 -128 -110 5 -1 -2
-9 -15 -20 -13 -11 -21 -24 -18 -29 6 -9 -21 -26 -36 -23 -4 1 -5 -5 -2 -13 4
-9 -2 -18 -17 -24 -13 -5 -18 -10 -10 -10 9 -1 11 -9 7 -26 -7 -29 1 -32 21
-8 13 16 13 16 3 -5 -6 -12 -8 -27 -5 -32 3 -5 1 -11 -4 -15 -6 -3 -8 -12 -4
-21 3 -8 -3 -22 -13 -30 -17 -14 -17 -15 -1 -10 9 3 17 1 17 -4 0 -6 -6 -10
-14 -10 -10 0 -13 -11 -10 -42 2 -24 1 -34 -2 -24 -6 19 -7 18 -25 -5 l-19
-24 3 33 c2 17 7 35 10 39 10 9 8 23 -2 23 -5 0 -13 -9 -16 -20 -4 -11 -11
-17 -17 -14 -7 4 -7 9 0 13 7 4 7 12 3 20 -5 8 -14 10 -21 6 -9 -5 -11 -4 -6
3 4 7 2 12 -5 12 -6 0 -9 8 -6 19 3 13 0 18 -8 15 -13 -5 -30 24 -20 34 3 3 5
0 5 -6 0 -7 4 -12 9 -12 4 0 6 11 3 25 -4 26 -21 35 -23 13 0 -7 -4 -4 -8 7
-5 11 -8 45 -7 75 1 30 -2 61 -7 68 -7 9 -5 11 9 6 18 -5 18 -5 0 10 -10 8
-15 19 -12 24 3 5 0 26 -6 48 l-11 39 -9 -42 c-9 -42 -35 -64 -49 -41 -18 29
-28 136 -20 211 10 91 21 112 21 41 0 -67 14 -87 29 -42 6 19 14 45 16 58 5
25 -19 55 -36 44 -9 -5 -10 6 -5 39 4 25 3 47 -1 50 -9 5 -7 68 3 157 4 30 6
69 4 85 -6 89 6 205 21 205 5 0 9 7 9 16 0 8 5 12 11 9 7 -5 5 -13 -7 -26 -15
-17 -15 -19 0 -35 9 -9 18 -15 20 -13 11 15 46 131 41 138 -3 5 -1 12 5 16 17
11 11 23 -15 29 -14 4 -25 12 -25 19 0 9 -2 9 -8 0 -5 -8 -8 1 -8 22 0 40 -11
55 -25 35 -8 -11 -9 -9 -4 8 5 16 1 30 -12 44 -18 20 -18 21 7 13 21 -6 23 -5
12 6 -7 8 -18 14 -25 14 -7 1 -11 7 -9 14 1 7 -5 19 -15 27 -15 11 -15 15 -4
23 10 6 10 10 1 16 -7 4 -17 1 -22 -6 -7 -10 -8 -3 -5 23 4 22 1 38 -5 40 -7
3 -8 10 -4 17 5 7 14 10 22 7 7 -3 16 -1 19 3 2 5 -11 12 -31 15 -33 7 -35 9
-29 38 5 21 4 28 -4 24 -6 -4 -11 -3 -11 3 0 5 -3 16 -6 25 -8 21 24 21 50 1
22 -17 36 -19 36 -7 0 5 -18 17 -40 28 -23 11 -40 26 -40 36 0 9 -6 19 -12 21
-10 4 -10 7 0 15 10 6 10 15 2 36 -14 37 -13 41 6 25 15 -12 16 -11 11 6 -10
29 31 55 45 30 9 -15 12 -15 30 5 21 22 17 43 -4 22 -9 -9 -15 -9 -25 0 -10 8
-17 8 -25 0 -7 -7 -18 -12 -26 -12 -11 0 -12 3 -3 14 8 10 9 16 1 21 -5 3 -10
14 -10 23 1 15 2 16 13 1 7 -9 29 -19 49 -23z m1272 1 c21 3 40 12 43 19 3 8
9 11 15 8 5 -3 4 -11 -3 -20 -6 -7 -9 -21 -5 -29 3 -9 0 -15 -9 -15 -8 0 -15
5 -15 10 0 14 -27 12 -33 -2 -4 -10 -7 -10 -18 0 -18 16 -29 15 -29 -3 0 -20
-6 -19 -32 7 -19 19 -22 20 -33 5 -7 -10 -17 -17 -23 -17 -6 0 -15 -8 -21 -17
-8 -14 -12 -15 -25 -4 -13 11 -17 11 -22 -3 -4 -10 -15 -16 -28 -14 -11 2 -21
-1 -21 -7 -1 -25 -16 -35 -35 -23 -28 18 -35 3 -10 -22 17 -17 24 -19 36 -9 8
6 14 18 14 25 0 8 9 14 19 14 11 0 23 5 27 11 3 6 15 8 26 6 11 -3 21 0 25 9
3 8 13 14 22 14 9 0 22 5 27 10 8 8 15 6 23 -4 17 -20 4 -38 -20 -31 -14 5
-17 3 -13 -9 3 -9 13 -16 21 -16 19 0 53 38 53 59 0 14 2 14 10 1 8 -12 13
-13 29 -3 16 10 24 9 43 -7 20 -15 24 -27 22 -67 -1 -53 -11 -94 -22 -91 -4 1
-16 -3 -27 -9 -11 -6 -37 -13 -57 -17 -21 -4 -38 -11 -38 -16 0 -13 27 -13 35
-1 3 6 13 9 23 9 9 0 33 7 54 15 l36 16 -11 -29 c-6 -17 -14 -30 -18 -30 -3 0
-4 -11 -2 -24 5 -22 1 -26 -31 -31 -20 -4 -33 -11 -30 -17 3 -5 14 -6 25 -3
13 4 19 2 19 -9 0 -9 -5 -16 -11 -16 -6 0 -8 -7 -5 -16 9 -24 -23 -57 -41 -43
-9 9 -13 9 -13 0 0 -10 13 -15 33 -12 12 2 8 -17 -5 -26 -7 -4 -14 -19 -15
-33 -4 -47 -7 -59 -14 -54 -4 2 -14 -11 -23 -30 -9 -18 -26 -37 -38 -41 -19
-6 -20 -8 -6 -12 22 -6 12 -33 -13 -33 -22 0 -24 -11 -7 -28 9 -9 9 -12 -2
-12 -25 0 -38 14 -55 55 -9 21 -34 59 -56 85 -21 25 -39 51 -39 56 0 15 -61
68 -93 82 -15 6 -33 24 -39 38 -11 24 -10 29 10 42 27 18 29 42 2 42 -14 0
-20 7 -20 23 0 31 10 40 27 26 10 -9 18 -8 31 3 9 9 22 13 29 11 11 -4 29 14
21 22 -1 2 -15 6 -31 10 -21 6 -27 4 -27 -9 0 -17 -5 -18 -32 -8 -14 6 -5 15
42 46 59 39 73 55 48 57 -7 0 -23 2 -36 5 -19 3 -21 1 -13 -15 12 -21 5 -32
-14 -25 -7 3 -16 -4 -20 -15 -3 -12 -11 -21 -16 -21 -12 0 -6 37 9 52 7 7 12
17 12 24 0 13 80 54 104 54 8 0 28 11 44 25 17 14 37 25 45 25 8 0 17 4 19 10
2 5 12 11 23 13 24 5 55 16 75 27 10 5 22 1 35 -11 16 -14 30 -17 59 -12z
m-975 -1 c7 -8 34 -19 61 -25 32 -7 61 -22 87 -46 21 -19 56 -41 78 -47 22 -6
47 -17 55 -24 30 -25 64 -25 114 1 27 14 58 25 68 25 10 0 30 13 44 30 15 16
31 27 35 24 5 -3 9 1 9 9 0 9 15 17 38 22 20 3 56 15 80 27 34 16 46 18 57 8
12 -10 12 -14 0 -26 -7 -8 -20 -11 -28 -8 -9 3 -17 -3 -20 -17 -6 -22 -7 -22
-26 -5 -18 16 -20 16 -29 0 -6 -11 -11 -13 -16 -5 -13 20 -26 12 -26 -15 0
-22 -2 -24 -15 -14 -11 9 -19 7 -39 -13 -13 -13 -46 -30 -73 -36 -26 -7 -55
-19 -64 -27 -9 -8 -30 -19 -45 -24 -21 -6 -23 -8 -9 -9 11 0 40 8 64 19 41 19
123 28 107 13 -4 -4 -33 -17 -64 -30 -31 -12 -50 -22 -42 -22 20 -1 -38 -31
-60 -31 -22 0 -90 29 -70 30 13 1 -17 15 -95 46 -17 7 -15 9 11 12 18 2 49 -4
69 -12 50 -21 63 -20 34 3 -13 10 -50 26 -81 35 -32 9 -58 21 -58 27 0 6 -4 8
-10 4 -5 -3 -6 -13 -3 -22 6 -15 5 -16 -9 -3 -9 8 -12 17 -7 18 5 2 9 13 9 24
0 21 0 21 -22 2 -21 -19 -21 -19 -16 3 7 28 -7 39 -27 23 -12 -10 -15 -9 -15
4 0 20 -9 20 -31 0 -16 -14 -18 -14 -24 6 -4 12 -12 19 -20 16 -17 -6 -39 19
-30 34 9 15 41 12 54 -4z m288 -72 c-3 -3 -12 -4 -19 -1 -8 3 -5 6 6 6 11 1
17 -2 13 -5z m-37 -27 c13 -5 13 -6 -1 -6 -8 -1 -24 6 -35 15 -19 15 -19 15 1
6 11 -5 27 -12 35 -15z m110 3 c0 -5 -9 -10 -19 -10 -11 0 -23 5 -26 10 -4 6
5 10 19 10 14 0 26 -4 26 -10z m90 0 c-8 -5 -22 -9 -30 -9 -10 0 -8 3 5 9 27
12 43 12 25 0z m104 -25 c-4 -8 -8 -15 -10 -15 -2 0 -4 7 -4 15 0 8 4 15 10
15 5 0 7 -7 4 -15z m-284 -115 c62 -24 82 -25 123 -3 36 18 73 25 100 17 28
-9 19 -24 -15 -25 -18 0 -42 -4 -53 -9 -14 -7 -7 -9 27 -6 63 5 53 -9 -14 -19
-67 -11 -139 -11 -205 0 -63 9 -71 25 -10 19 30 -2 37 -1 22 6 -11 5 -35 9
-52 9 -51 1 -39 25 14 30 7 0 35 -8 63 -19z m-440 -470 c0 -5 -4 -10 -10 -10
-5 0 -10 5 -10 10 0 6 5 10 10 10 6 0 10 -4 10 -10z m790 -50 c0 -5 -2 -10 -4
-10 -3 0 -8 5 -11 10 -3 6 -1 10 4 10 6 0 11 -4 11 -10z m-900 -555 c0 -14 -4
-25 -10 -25 -5 0 -10 11 -10 25 0 14 5 25 10 25 6 0 10 -11 10 -25z m570 -662
c33 -10 60 -24 60 -30 0 -7 7 -14 15 -14 8 -1 20 -3 25 -4 6 -1 13 -3 16 -4 4
0 1 -7 -5 -15 -7 -8 -27 -13 -45 -12 -23 1 -32 -3 -29 -11 6 -14 -36 -14 -54
0 -10 7 -13 3 -13 -13 0 -16 -4 -20 -16 -16 -9 3 -25 -1 -37 -9 -17 -12 -18
-15 -5 -20 30 -12 6 -75 -27 -75 -6 0 -6 3 1 8 6 4 13 15 17 25 5 14 0 21 -22
28 l-29 10 24 72 c13 40 26 78 29 85 6 16 25 15 95 -5z m90 -23 c0 -5 -2 -10
-4 -10 -3 0 -8 5 -11 10 -3 6 -1 10 4 10 6 0 11 -4 11 -10z m-227 -157 c-3 -7
-6 -13 -8 -13 -2 0 -5 6 -8 13 -3 8 1 14 8 14 7 0 11 -6 8 -14z m194 -17 c-4
-9 2 -17 14 -21 20 -7 25 -20 10 -29 -5 -4 -12 0 -14 6 -3 8 -6 6 -6 -4 -1
-10 -8 -18 -16 -18 -8 0 -15 -4 -15 -10 0 -5 -7 -7 -15 -4 -9 4 -15 0 -15 -10
0 -26 -35 14 -37 43 l-2 23 19 -22 c11 -13 21 -17 25 -10 3 5 2 10 -3 10 -6 0
-13 8 -16 17 -4 10 -4 15 -1 11 4 -3 15 2 26 13 23 23 54 26 46 5z m-97 -6 c0
-5 -4 -10 -10 -10 -5 0 -10 5 -10 10 0 6 5 10 10 10 6 0 10 -4 10 -10z m-70
-48 c0 -5 -7 -9 -15 -9 -8 0 -12 4 -9 9 3 4 9 8 15 8 5 0 9 -4 9 -8z"/>
<path d="M3521 3581 c-10 -7 -7 -9 12 -8 14 1 23 5 20 10 -6 9 -15 9 -32 -2z"/>
<path d="M2985 3440 c-10 -11 -24 -20 -32 -20 -20 0 -16 -17 9 -40 24 -22 49
-23 56 -1 3 9 -1 11 -16 7 -30 -10 -38 13 -13 37 18 19 21 19 21 4 0 -10 8
-17 20 -17 10 0 23 -7 28 -16 7 -13 13 -14 31 -5 17 10 21 9 21 -4 0 -17 35
-21 45 -5 3 6 -3 10 -13 10 -11 0 -25 7 -32 15 -10 12 -16 13 -26 4 -9 -8 -14
-8 -14 -1 0 6 -9 14 -20 17 -11 3 -26 13 -34 20 -12 12 -16 11 -31 -5z"/>
<path d="M3185 3360 c-3 -5 -12 -7 -20 -3 -19 7 -19 -11 -1 -26 12 -10 19 -8
34 7 11 11 18 23 15 26 -9 9 -21 7 -28 -4z"/>
<path d="M2926 3336 c5 -13 54 -40 54 -30 0 9 -24 30 -42 37 -12 4 -15 2 -12
-7z"/>
<path d="M3035 3334 c11 -8 31 -18 45 -21 14 -3 33 -12 42 -21 18 -15 48 -10
48 7 0 6 -7 8 -15 5 -8 -4 -15 -1 -15 5 0 6 -7 8 -15 5 -8 -4 -15 -1 -15 5 0
6 -6 8 -13 5 -8 -3 -20 2 -27 11 -7 8 -22 15 -34 15 -21 -1 -21 -1 -1 -16z"/>
<path d="M2895 3320 c3 -5 8 -10 11 -10 2 0 4 5 4 10 0 6 -5 10 -11 10 -5 0
-7 -4 -4 -10z"/>
<path d="M3010 3295 c7 -8 17 -12 22 -9 6 4 5 10 -3 15 -22 14 -33 10 -19 -6z"/>
<path d="M3055 3280 c3 -5 11 -10 16 -10 6 0 7 5 4 10 -3 6 -11 10 -16 10 -6
0 -7 -4 -4 -10z"/>
<path d="M3005 3250 c10 -11 23 -20 28 -20 6 0 2 9 -8 20 -10 11 -23 20 -28
20 -6 0 -2 -9 8 -20z"/>
<path d="M3186 3261 c-11 -4 -15 -10 -10 -14 14 -8 54 3 54 14 0 11 -17 11
-44 0z"/>
<path d="M3110 3250 c0 -5 5 -10 10 -10 6 0 10 5 10 10 0 6 -4 10 -10 10 -5 0
-10 -4 -10 -10z"/>
<path d="M2940 3221 c0 -5 7 -12 16 -15 24 -9 28 -7 14 9 -14 17 -30 20 -30 6z"/>
<path d="M3140 3213 c0 -25 19 -30 38 -11 18 18 15 33 -4 17 -13 -10 -17 -10
-25 2 -7 11 -9 9 -9 -8z"/>
<path d="M3000 3201 c0 -5 7 -12 16 -15 24 -9 28 -7 14 9 -14 17 -30 20 -30 6z"/>
<path d="M3060 3180 c0 -5 6 -11 13 -11 6 -1 27 -3 45 -5 22 -3 31 0 26 7 -3
6 -17 8 -29 5 -13 -3 -27 -2 -30 4 -8 13 -25 13 -25 0z"/>
<path d="M3218 3182 c-10 -2 -18 -8 -18 -13 0 -11 11 -11 30 1 18 11 11 18
-12 12z"/>
<path d="M2900 3170 c0 -5 5 -10 10 -10 6 0 10 5 10 10 0 6 -4 10 -10 10 -5 0
-10 -4 -10 -10z"/>
<path d="M2950 3171 c0 -5 7 -12 16 -15 24 -9 28 -7 14 9 -14 17 -30 20 -30 6z"/>
<path d="M3010 3151 c0 -11 31 -24 39 -16 3 3 -1 10 -9 15 -19 12 -30 12 -30
1z"/>
<path d="M2964 3115 c21 -16 32 -13 21 4 -3 6 -14 11 -23 11 -15 -1 -15 -2 2
-15z"/>
<path d="M3080 3120 c0 -6 7 -13 15 -17 24 -9 27 1 5 15 -13 8 -20 8 -20 2z"/>
<path d="M3163 3113 c9 -9 20 -13 24 -9 4 4 1 11 -7 16 -25 16 -35 11 -17 -7z"/>
<path d="M3378 3123 c7 -3 16 -2 19 1 4 3 -2 6 -13 5 -11 0 -14 -3 -6 -6z"/>
<path d="M3678 3123 c7 -3 16 -2 19 1 4 3 -2 6 -13 5 -11 0 -14 -3 -6 -6z"/>
<path d="M2924 3085 c11 -8 22 -12 25 -9 6 6 -19 24 -34 24 -5 -1 -1 -7 9 -15z"/>
<path d="M3040 3095 c0 -2 10 -10 23 -16 20 -11 21 -11 8 4 -13 16 -31 23 -31
12z"/>
<path d="M3235 3091 c-3 -6 -11 -9 -16 -6 -5 4 -9 1 -9 -4 0 -13 10 -14 30 -1
8 5 12 12 8 15 -3 4 -9 1 -13 -4z"/>
<path d="M3115 3070 c3 -5 14 -10 23 -10 15 0 15 2 2 10 -20 13 -33 13 -25 0z"/>
<path d="M2990 3060 c0 -5 5 -10 10 -10 6 0 10 5 10 10 0 6 -4 10 -10 10 -5 0
-10 -4 -10 -10z"/>
<path d="M3677 3040 c7 -28 15 -31 38 -13 19 15 19 15 -4 8 -20 -6 -23 -4 -18
9 4 10 1 16 -7 16 -9 0 -12 -7 -9 -20z"/>
<path d="M2947 3043 c-4 -3 -7 -11 -7 -17 0 -6 5 -5 12 2 6 6 9 14 7 17 -3 3
-9 2 -12 -2z"/>
<path d="M3055 3040 c3 -5 11 -10 16 -10 6 0 7 5 4 10 -3 6 -11 10 -16 10 -6
0 -7 -4 -4 -10z"/>
<path d="M3160 3040 c0 -6 7 -13 15 -17 24 -9 27 1 5 15 -13 8 -20 8 -20 2z"/>
<path d="M2970 3033 c0 -13 22 -33 36 -33 6 0 15 7 18 16 5 12 2 15 -10 10 -9
-4 -23 -1 -30 5 -8 6 -14 7 -14 2z"/>
<path d="M3035 3000 c3 -5 8 -10 11 -10 2 0 4 5 4 10 0 6 -5 10 -11 10 -5 0
-7 -4 -4 -10z"/>
<path d="M3134 2990 c-12 -5 -25 -15 -29 -22 -6 -10 -5 -10 5 -1 7 6 18 9 25
7 7 -3 16 0 20 6 10 16 3 19 -21 10z"/>
<path d="M3075 2930 c-3 -5 -1 -10 4 -10 6 0 11 5 11 10 0 6 -2 10 -4 10 -3 0
-8 -4 -11 -10z"/>
<path d="M2980 2900 c0 -5 5 -10 10 -10 6 0 10 5 10 10 0 6 -4 10 -10 10 -5 0
-10 -4 -10 -10z"/>
<path d="M3055 2866 c-10 -14 -24 -26 -31 -26 -18 0 -18 -8 0 -26 18 -17 26
-18 26 -1 0 6 7 25 15 41 20 37 12 46 -10 12z"/>
<path d="M3716 2861 c-4 -7 -5 -15 -2 -18 9 -9 19 4 14 18 -4 11 -6 11 -12 0z"/>
<path d="M3740 2811 c0 -5 5 -13 10 -16 6 -3 10 -2 10 4 0 5 -4 13 -10 16 -5
3 -10 2 -10 -4z"/>
<path d="M3687 2743 c-5 -7 -6 -17 -2 -22 3 -6 -3 -14 -12 -20 -23 -12 -9 -27
15 -15 14 7 17 16 12 39 -3 20 -8 26 -13 18z"/>
<path d="M3530 2700 c0 -5 7 -7 15 -4 8 4 15 8 15 10 0 2 -7 4 -15 4 -8 0 -15
-4 -15 -10z"/>
<path d="M3655 2659 c-9 -14 -2 -20 14 -10 8 6 9 11 3 15 -6 3 -14 1 -17 -5z"/>
<path d="M3505 2650 c-3 -5 1 -10 10 -10 9 0 13 5 10 10 -3 6 -8 10 -10 10 -2
0 -7 -4 -10 -10z"/>
<path d="M3545 2640 c-3 -5 -1 -10 4 -10 6 0 11 5 11 10 0 6 -2 10 -4 10 -3 0
-8 -4 -11 -10z"/>
<path d="M3730 2590 c0 -5 5 -10 11 -10 5 0 7 5 4 10 -3 6 -8 10 -11 10 -2 0
-4 -4 -4 -10z"/>
<path d="M3003 2300 c0 -35 3 -37 16 -11 8 14 7 22 -3 30 -10 8 -13 4 -13 -19z"/>
<path d="M3211 2296 c-19 -7 -37 -18 -39 -26 -3 -9 1 -11 14 -6 11 5 33 13 49
18 17 6 34 15 40 19 13 13 -24 10 -64 -5z"/>
<path d="M2962 1969 c2 -7 10 -15 17 -17 8 -3 12 1 9 9 -2 7 -10 15 -17 17 -8
3 -12 -1 -9 -9z"/>
<path d="M2990 1920 c0 -5 5 -10 11 -10 5 0 7 5 4 10 -3 6 -8 10 -11 10 -2 0
-4 -4 -4 -10z"/>
<path d="M3290 1829 c0 -5 5 -7 10 -4 6 3 10 8 10 11 0 2 -4 4 -10 4 -5 0 -10
-5 -10 -11z"/>
<path d="M3060 1744 c0 -8 5 -12 10 -9 6 4 8 11 5 16 -9 14 -15 11 -15 -7z"/>
<path d="M3045 1670 c-4 -12 -5 -24 -2 -27 3 -2 8 5 12 17 4 12 5 24 2 27 -3
2 -8 -5 -12 -17z"/>
<path d="M3490 1610 c0 -5 5 -10 10 -10 6 0 10 5 10 10 0 6 -4 10 -10 10 -5 0
-10 -4 -10 -10z"/>
<path d="M3155 1480 c-3 -5 -1 -10 4 -10 6 0 11 5 11 10 0 6 -2 10 -4 10 -3 0
-8 -4 -11 -10z"/>
<path d="M4210 3379 c0 -5 5 -7 10 -4 6 3 10 8 10 11 0 2 -4 4 -10 4 -5 0 -10
-5 -10 -11z"/>
<path d="M4024 3350 c-12 -5 -25 -13 -28 -19 -4 -6 -13 -8 -20 -5 -7 3 -21 -2
-30 -11 -9 -9 -24 -14 -32 -11 -10 4 -14 1 -12 -6 7 -20 40 -22 50 -4 5 9 20
16 32 16 24 0 76 34 66 43 -3 3 -15 1 -26 -3z"/>
<path d="M4130 3343 c-20 -8 -44 -33 -37 -39 8 -8 44 13 51 31 3 8 4 15 3 14
-1 0 -9 -3 -17 -6z"/>
<path d="M4160 3319 c0 -5 5 -7 10 -4 6 3 10 8 10 11 0 2 -4 4 -10 4 -5 0 -10
-5 -10 -11z"/>
<path d="M4050 3300 c-9 -6 -10 -10 -3 -10 6 0 15 5 18 10 8 12 4 12 -15 0z"/>
<path d="M3995 3280 c-3 -5 -2 -10 4 -10 5 0 13 5 16 10 3 6 2 10 -4 10 -5 0
-13 -4 -16 -10z"/>
<path d="M3836 3260 c13 -13 56 -17 60 -5 2 6 -13 11 -33 13 -25 1 -34 -1 -27
-8z"/>
<path d="M4056 3254 c-11 -7 -17 -16 -15 -19 3 -3 14 2 25 9 10 8 17 17 14 19
-3 3 -14 -1 -24 -9z"/>
<path d="M3940 3250 c0 -5 5 -10 10 -10 6 0 10 5 10 10 0 6 -4 10 -10 10 -5 0
-10 -4 -10 -10z"/>
<path d="M3880 3222 c0 -12 22 -32 37 -32 7 0 13 8 13 17 0 9 -3 13 -6 10 -4
-3 -15 -2 -25 4 -11 5 -19 6 -19 1z"/>
<path d="M4036 3195 c-11 -8 -15 -15 -9 -15 19 0 43 12 43 21 0 13 -12 11 -34
-6z"/>
<path d="M3830 3180 c0 -11 30 -21 41 -14 16 10 9 19 -16 20 -14 1 -25 -2 -25
-6z"/>
<path d="M3980 3180 c-8 -5 -12 -12 -9 -15 8 -8 39 5 39 16 0 11 -11 11 -30
-1z"/>
<path d="M3930 3168 c0 -4 7 -8 15 -8 8 0 15 4 15 8 0 5 -7 9 -15 9 -8 0 -15
-4 -15 -9z"/>
<path d="M4094 3165 c-10 -8 -14 -14 -9 -15 15 0 40 18 34 24 -3 3 -14 -1 -25
-9z"/>
<path d="M4155 3170 c-3 -5 -1 -10 4 -10 6 0 11 5 11 10 0 6 -2 10 -4 10 -3 0
-8 -4 -11 -10z"/>
<path d="M3785 3150 c18 -20 45 -27 45 -12 0 8 -43 32 -57 32 -3 0 2 -9 12
-20z"/>
<path d="M4030 3150 c-8 -5 -12 -12 -9 -15 8 -8 39 5 39 16 0 11 -11 11 -30
-1z"/>
<path d="M3877 3113 c3 -7 11 -13 18 -13 7 0 15 6 18 13 3 7 -4 12 -18 12 -14
0 -21 -5 -18 -12z"/>
<path d="M3970 3115 c-7 -8 -8 -15 -2 -15 5 0 15 7 22 15 7 8 8 15 2 15 -5 0
-15 -7 -22 -15z"/>
<path d="M4080 3120 c-12 -8 -11 -10 7 -10 12 0 25 5 28 10 8 13 -15 13 -35 0z"/>
<path d="M3820 3092 c0 -5 7 -13 16 -16 22 -8 24 -8 24 6 0 6 -3 8 -7 5 -3 -4
-12 -2 -20 4 -8 7 -13 8 -13 1z"/>
<path d="M4000 3090 c-8 -5 -11 -12 -7 -16 4 -4 15 0 24 9 18 18 8 23 -17 7z"/>
<path d="M4126 3091 c-15 -6 -16 -10 -7 -15 8 -5 20 -2 29 8 17 17 9 19 -22 7z"/>
<path d="M3761 3064 c0 -11 3 -14 6 -6 3 7 2 16 -1 19 -3 4 -6 -2 -5 -13z"/>
<path d="M3940 3070 c-8 -5 -10 -10 -5 -10 6 0 17 5 25 10 8 5 11 10 5 10 -5
0 -17 -5 -25 -10z"/>
<path d="M4070 3059 c0 -5 5 -7 10 -4 6 3 10 8 10 11 0 2 -4 4 -10 4 -5 0 -10
-5 -10 -11z"/>
<path d="M3887 3035 c-10 -7 -14 -16 -9 -19 5 -3 15 1 22 9 17 21 9 27 -13 10z"/>
<path d="M3997 3043 c-12 -12 -7 -22 8 -17 8 4 15 10 15 15 0 11 -14 12 -23 2z"/>
<path d="M4085 3030 c-4 -6 -13 -9 -21 -6 -15 6 -20 -9 -5 -18 11 -7 48 20 39
29 -3 3 -9 1 -13 -5z"/>
<path d="M3910 2990 c0 -14 17 -21 34 -14 24 9 19 19 -9 20 -14 1 -25 -2 -25
-6z"/>
<path d="M3875 2980 c3 -5 8 -10 11 -10 2 0 4 5 4 10 0 6 -5 10 -11 10 -5 0
-7 -4 -4 -10z"/>
<path d="M4100 2945 c-7 -8 -8 -15 -2 -15 5 0 15 7 22 15 7 8 8 15 2 15 -5 0
-15 -7 -22 -15z"/>
<path d="M4080 2910 c-8 -5 -11 -12 -7 -16 4 -4 13 -2 19 4 15 15 7 24 -12 12z"/>
<path d="M4000 2872 c6 -13 14 -21 18 -18 3 4 -2 14 -12 24 -18 16 -18 16 -6
-6z"/>
<path d="M3475 1430 c-3 -5 -1 -10 4 -10 6 0 11 5 11 10 0 6 -2 10 -4 10 -3 0
-8 -4 -11 -10z"/>
</g>
</svg>
